<svg xmlns="http://www.w3.org/2000/svg" viewBox="0 0 1000 600" font-family="Consolas, monospace" font-size="11">
<style>
  .w { stroke: #333; stroke-width: 1.5; fill: none; }
  .pwr { stroke: #b00; stroke-width: 2; fill: none; }
  .gw { stroke: #070; stroke-width: 2; fill: none; }
  .box { stroke: #333; stroke-width: 1.5; fill: #fafaf5; }
  .pad { stroke: #555; stroke-width: 1.5; fill: #ffe; rx: 3; }
  .lbl { font-size: 10; fill: #333; }
  .val { font-size: 9; fill: #777; }
  .net { font-size: 9; fill: #b00; font-weight: bold; }
  .gnet { font-size: 9; fill: #070; font-weight: bold; }
  .ttl { font-size: 14; fill: #333; font-weight: bold; }
  .sec { font-size: 11; fill: #555; font-weight: bold; }
  .dot { fill: #333; }
  .gnd_sym { stroke: #333; stroke-width: 1.5; }
</style>
<text x="500" y="22" class="ttl" text-anchor="middle">NumWorks N0100 Power Module — Schematic (from atopile netlist)</text>
<text x="80" y="60" class="sec">CHARGER</text>
<rect x="140" y="75" width="100" height="130" rx="4" class="box"/>
<text x="190" y="93" class="lbl" text-anchor="middle" font-weight="bold">U2 TP4056</text>
<text x="145" y="110" class="lbl">4 VCC</text>
<line x1="140" y1="107" x2="125" y2="107" class="w"/>
<text x="145" y="125" class="lbl">8 CE</text>
<line x1="140" y1="122" x2="125" y2="122" class="w"/>
<text x="145" y="140" class="lbl">2 PROG</text>
<line x1="140" y1="137" x2="125" y2="137" class="w"/>
<text x="145" y="155" class="lbl">1 TEMP</text>
<line x1="140" y1="152" x2="125" y2="152" class="w"/>
<text x="145" y="170" class="lbl">3 GND</text>
<line x1="140" y1="167" x2="125" y2="167" class="w"/>
<text x="145" y="185" class="lbl">9 EP</text>
<line x1="140" y1="182" x2="125" y2="182" class="w"/>
<text x="235" y="110" class="lbl" text-anchor="end">BAT 5</text>
<line x1="240" y1="107" x2="255" y2="107" class="w"/>
<text x="235" y="130" class="lbl" text-anchor="end">nCHRG 7</text>
<line x1="240" y1="127" x2="255" y2="127" class="w"/>
<text x="235" y="150" class="lbl" text-anchor="end">nSTDBY 6</text>
<line x1="240" y1="147" x2="255" y2="147" class="w"/>
<line x1="125" y1="107" x2="125" y2="122" class="pwr"/>
<circle cx="125" cy="107" r="2" class="dot"/>
<line x1="125" y1="107" x2="70" y2="107" class="pwr"/>
<text x="72" y="103" class="net">VUSB</text>
<rect x="30" y="97" width="40" height="18" class="pad"/>
<text x="50" y="110" class="lbl" text-anchor="middle">VUSB</text>
<line x1="125" y1="107" x2="100" y2="107" class="pwr"/>
<line x1="95" y1="115" x2="105" y2="115" class="w"/>
<line x1="95" y1="119" x2="105" y2="119" class="w"/>
<text x="109" y="117" class="lbl">C6</text>
<text x="109" y="128" class="val">4.7µF</text>
<line x1="100" y1="107" x2="100" y2="115" class="pwr"/>
<line x1="100" y1="119" x2="100" y2="129" class="gw"/>
<line x1="100" y1="129" x2="100" y2="135" class="gw"/>
<line x1="94" y1="135" x2="106" y2="135" class="gnd_sym"/>
<line x1="96" y1="138" x2="104" y2="138" class="gnd_sym"/>
<line x1="98" y1="141" x2="102" y2="141" class="gnd_sym"/>
<line x1="125" y1="137" x2="125" y2="145" class="w"/>
<rect x="121" y="145" width="8" height="22" rx="1" class="box"/>
<text x="133" y="156" class="lbl">R5</text>
<text x="133" y="167" class="val">2kΩ</text>
<line x1="125" y1="167" x2="125" y2="173" class="gw"/>
<line x1="125" y1="173" x2="125" y2="179" class="gw"/>
<line x1="119" y1="179" x2="131" y2="179" class="gnd_sym"/>
<line x1="121" y1="182" x2="129" y2="182" class="gnd_sym"/>
<line x1="123" y1="185" x2="127" y2="185" class="gnd_sym"/>
<line x1="125" y1="152" x2="115" y2="152" class="gw"/>
<line x1="115" y1="152" x2="115" y2="158" class="gw"/>
<line x1="109" y1="158" x2="121" y2="158" class="gnd_sym"/>
<line x1="111" y1="161" x2="119" y2="161" class="gnd_sym"/>
<line x1="113" y1="164" x2="117" y2="164" class="gnd_sym"/>
<line x1="125" y1="167" x2="115" y2="167" class="gw"/>
<line x1="115" y1="167" x2="115" y2="182" class="gw"/>
<line x1="125" y1="182" x2="115" y2="182" class="gw"/>
<line x1="115" y1="182" x2="115" y2="188" class="gw"/>
<line x1="109" y1="188" x2="121" y2="188" class="gnd_sym"/>
<line x1="111" y1="191" x2="119" y2="191" class="gnd_sym"/>
<line x1="113" y1="194" x2="117" y2="194" class="gnd_sym"/>
<text x="260" y="103" class="net">VBAT</text>
<line x1="255" y1="107" x2="280" y2="107" class="pwr"/>
<line x1="275" y1="115" x2="285" y2="115" class="w"/>
<line x1="275" y1="119" x2="285" y2="119" class="w"/>
<text x="289" y="117" class="lbl">C5</text>
<text x="289" y="128" class="val">4.7µF</text>
<line x1="280" y1="107" x2="280" y2="115" class="pwr"/>
<line x1="280" y1="119" x2="280" y2="129" class="gw"/>
<line x1="280" y1="129" x2="280" y2="135" class="gw"/>
<line x1="274" y1="135" x2="286" y2="135" class="gnd_sym"/>
<line x1="276" y1="138" x2="284" y2="138" class="gnd_sym"/>
<line x1="278" y1="141" x2="282" y2="141" class="gnd_sym"/>
<line x1="255" y1="107" x2="305" y2="107" class="pwr"/>
<circle cx="255" cy="107" r="2" class="dot"/>
<rect x="30" y="142" width="40" height="18" class="pad"/>
<text x="50" y="155" class="lbl" text-anchor="middle">VBAT</text>
<line x1="70" y1="151" x2="85" y2="151" class="pwr"/>
<text x="88" y="147" class="net">VBAT</text>
<line x1="255" y1="127" x2="285" y2="127" class="w"/>
<text x="260" y="122" class="net">CHG_STAT</text>
<text x="260" y="139" class="val">(PA0, active-low)</text>
<rect x="30" y="207" width="40" height="18" class="pad"/>
<text x="50" y="220" class="lbl" text-anchor="middle">CHG_STAT</text>
<text x="260" y="147" class="val">NC (float)</text>
<text x="380" y="60" class="sec">P-MOSFET SWITCH</text>
<rect x="410" y="75" width="90" height="80" rx="4" class="box"/>
<text x="455" y="93" class="lbl" text-anchor="middle" font-weight="bold">Q1 AO3401A</text>
<text x="455" y="105" class="val" text-anchor="middle">P-ch MOSFET</text>
<text x="415" y="123" class="lbl">S</text>
<line x1="410" y1="120" x2="395" y2="120" class="pwr"/>
<text x="415" y="143" class="lbl">G</text>
<line x1="410" y1="140" x2="395" y2="140" class="w"/>
<text x="495" y="123" class="lbl" text-anchor="end">D</text>
<line x1="500" y1="120" x2="515" y2="120" class="pwr"/>
<line x1="305" y1="107" x2="305" y2="120" class="pwr"/>
<line x1="305" y1="120" x2="395" y2="120" class="pwr"/>
<text x="308" y="116" class="net">VBAT</text>
<line x1="395" y1="120" x2="375" y2="120" class="pwr"/>
<circle cx="395" cy="120" r="2" class="dot"/>
<rect x="371" y="123" width="8" height="22" rx="1" class="box"/>
<text x="383" y="134" class="lbl">R8</text>
<text x="383" y="145" class="val">100kΩ</text>
<line x1="375" y1="145" x2="375" y2="140" class="w"/>
<line x1="375" y1="140" x2="395" y2="140" class="w"/>
<circle cx="375" cy="140" r="2" class="dot"/>
<line x1="375" y1="140" x2="375" y2="160" class="w"/>
<text x="380" y="158" class="net">PI_EN</text>
<text x="380" y="170" class="val">(PB9: low=ON)</text>
<rect x="30" y="172" width="40" height="18" class="pad"/>
<text x="50" y="185" class="lbl" text-anchor="middle">PI_EN</text>
<text x="520" y="115" class="net">VBAT_SW</text>
<text x="620" y="60" class="sec">5V BOOST</text>
<rect x="670" y="75" width="100" height="100" rx="4" class="box"/>
<text x="720" y="93" class="lbl" text-anchor="middle" font-weight="bold">U1 SX1308</text>
<text x="675" y="115" class="lbl">5 VIN</text>
<line x1="670" y1="112" x2="655" y2="112" class="pwr"/>
<text x="675" y="133" class="lbl">4 EN</text>
<line x1="670" y1="130" x2="655" y2="130" class="w"/>
<text x="675" y="153" class="lbl">2 GND</text>
<line x1="670" y1="150" x2="655" y2="150" class="gw"/>
<text x="765" y="115" class="lbl" text-anchor="end">SW 1</text>
<line x1="770" y1="112" x2="785" y2="112" class="pwr"/>
<text x="765" y="153" class="lbl" text-anchor="end">FB 3</text>
<line x1="770" y1="150" x2="785" y2="150" class="w"/>
<line x1="515" y1="120" x2="590" y2="120" class="pwr"/>
<line x1="590" y1="120" x2="590" y2="112" class="pwr"/>
<line x1="590" y1="112" x2="595" y2="112" class="pwr"/>
<path d="M595,112 c4,-8 8,-8 12,0 c4,-8 8,-8 12,0 c4,-8 8,-8 12,0 c4,-8 8,-8 12,0" class="pwr" fill="none"/>
<text x="619" y="102" class="lbl" text-anchor="middle">L1</text>
<text x="619" y="127" class="val" text-anchor="middle">22µH</text>
<line x1="643" y1="112" x2="655" y2="112" class="pwr"/>
<circle cx="655" cy="112" r="2" class="dot"/>
<line x1="655" y1="112" x2="655" y2="130" class="w"/>
<line x1="590" y1="112" x2="590" y2="124" class="pwr"/>
<circle cx="590" cy="112" r="2" class="dot"/>
<line x1="585" y1="124" x2="595" y2="124" class="w"/>
<line x1="585" y1="128" x2="595" y2="128" class="w"/>
<text x="599" y="126" class="lbl">C1</text>
<text x="599" y="137" class="val">10µF</text>
<line x1="590" y1="128" x2="590" y2="138" class="gw"/>
<line x1="590" y1="138" x2="590" y2="144" class="gw"/>
<line x1="584" y1="144" x2="596" y2="144" class="gnd_sym"/>
<line x1="586" y1="147" x2="594" y2="147" class="gnd_sym"/>
<line x1="588" y1="150" x2="592" y2="150" class="gnd_sym"/>
<line x1="655" y1="150" x2="655" y2="156" class="gw"/>
<line x1="649" y1="156" x2="661" y2="156" class="gnd_sym"/>
<line x1="651" y1="159" x2="659" y2="159" class="gnd_sym"/>
<line x1="653" y1="162" x2="657" y2="162" class="gnd_sym"/>
<text x="788" y="106" class="net">SW</text>
<line x1="785" y1="112" x2="805" y2="112" class="pwr"/>
<polygon points="805,104 805,120 821,112" stroke="#333" stroke-width="1.5" fill="white"/>
<line x1="821" y1="104" x2="821" y2="120" stroke="#333" stroke-width="2"/>
<text x="813" y="100" class="lbl" text-anchor="middle">D1 SS34</text>
<line x1="821" y1="112" x2="855" y2="112" class="pwr"/>
<text x="840" y="106" class="net">V5_PI</text>
<line x1="855" y1="112" x2="855" y2="124" class="pwr"/>
<circle cx="855" cy="112" r="2" class="dot"/>
<line x1="850" y1="124" x2="860" y2="124" class="w"/>
<line x1="850" y1="128" x2="860" y2="128" class="w"/>
<text x="864" y="126" class="lbl">C2</text>
<text x="864" y="137" class="val">22µF</text>
<line x1="855" y1="128" x2="855" y2="138" class="gw"/>
<line x1="855" y1="138" x2="855" y2="144" class="gw"/>
<line x1="849" y1="144" x2="861" y2="144" class="gnd_sym"/>
<line x1="851" y1="147" x2="859" y2="147" class="gnd_sym"/>
<line x1="853" y1="150" x2="857" y2="150" class="gnd_sym"/>
<rect x="865" y="102" width="40" height="18" class="pad"/>
<text x="885" y="115" class="lbl" text-anchor="middle">V5_PI</text>
<line x1="785" y1="150" x2="815" y2="150" class="w"/>
<circle cx="815" cy="150" r="2" class="dot"/>
<line x1="855" y1="112" x2="855" y2="115" class="pwr"/>
<line x1="855" y1="115" x2="815" y2="115" class="w"/>
<rect x="811" y="117" width="8" height="28" rx="1" class="box"/>
<text x="823" y="131" class="lbl">R3</text>
<text x="823" y="142" class="val">220kΩ</text>
<rect x="811" y="153" width="8" height="28" rx="1" class="box"/>
<text x="823" y="167" class="lbl">R2</text>
<text x="823" y="178" class="val">30kΩ</text>
<line x1="815" y1="181" x2="815" y2="188" class="gw"/>
<line x1="815" y1="188" x2="815" y2="194" class="gw"/>
<line x1="809" y1="194" x2="821" y2="194" class="gnd_sym"/>
<line x1="811" y1="197" x2="819" y2="197" class="gnd_sym"/>
<line x1="813" y1="200" x2="817" y2="200" class="gnd_sym"/>
<text x="800" y="153" class="net">FB</text>
<rect x="580" y="200" width="280" height="55" rx="4" stroke="#aaa" stroke-width="1" fill="#f0f0ff"/>
<text x="590" y="218" class="lbl" font-weight="bold">Vout = 0.6V × (1 + R3/R2)</text>
<text x="590" y="232" class="val">= 0.6 × (1 + 220k/30k) = 0.6 × 8.33 = 5.0V</text>
<text x="590" y="246" class="val">Charge current = 1000V/R5 = 1000/2000 = 500mA</text>
<rect x="30" y="242" width="40" height="18" class="pad"/>
<text x="50" y="255" class="lbl" text-anchor="middle">GND</text>
<rect x="30" y="340" width="500" height="210" rx="4" stroke="#aaa" stroke-width="1" fill="#f8f8f8"/>
<text x="40" y="358" class="sec">Verified Netlist (from atopile graph export)</text>
<text x="50" y="376" class="net">VUSB        </text>
<text x="150" y="376" class="val">U2.VCC(4), U2.CE(8), C6+, J_VUSB</text>
<text x="50" y="392" class="net">GND         </text>
<text x="150" y="392" class="val">U2.GND(3), U2.EP(9), U2.TEMP(1), R5-, C6-, C5-, U1.GND(2), R2-, C1-, C2-, J_GND</text>
<text x="50" y="408" class="net">VBAT        </text>
<text x="150" y="408" class="val">U2.BAT(5), C5+, Q1.S(2), R8+, J_VBAT</text>
<text x="50" y="424" class="net">VBAT_SW     </text>
<text x="150" y="424" class="val">Q1.D(3), U1.VIN(5), U1.EN(4), L1.1, C1+</text>
<text x="50" y="440" class="net">SW          </text>
<text x="150" y="440" class="val">U1.SW(1), L1.2, D1.A(2)</text>
<text x="50" y="456" class="net">V5_PI       </text>
<text x="150" y="456" class="val">D1.K(1), R3+, C2+, J_V5PI</text>
<text x="50" y="472" class="net">FB          </text>
<text x="150" y="472" class="val">U1.FB(3), R3-, R2+</text>
<text x="50" y="488" class="net">PROG        </text>
<text x="150" y="488" class="val">U2.PROG(2), R5+</text>
<text x="50" y="504" class="net">PI_EN       </text>
<text x="150" y="504" class="val">Q1.G(1), R8-, J_PI_EN</text>
<text x="50" y="520" class="net">CHG_STAT    </text>
<text x="150" y="520" class="val">U2.nCHRG(7), J_CHG</text>
<text x="50" y="536" class="net">nSTDBY      </text>
<text x="150" y="536" class="val">U2.nSTDBY(6) — NC (floating)</text>
<rect x="560" y="340" width="400" height="210" rx="4" stroke="#aaa" stroke-width="1" fill="#f8f8f8"/>
<text x="570" y="358" class="sec">BOM (12 components + 6 pads)</text>
<text x="570" y="376" class="val">U1: SX1308      SOT-23-6    Boost converter       C78162  Ext</text>
<text x="570" y="391" class="val">U2: TP4056      ESOP-8      Li-Ion charger        C16581  Ext</text>
<text x="570" y="406" class="val">Q1: AO3401A     SOT-23      P-ch MOSFET switch    C15127  Bas</text>
<text x="570" y="421" class="val">D1: SS34        SMA         Schottky 3A/40V       C8678   Bas</text>
<text x="570" y="436" class="val">L1: 22µH        4x4x2mm     Boost inductor        C128694 Ext</text>
<text x="570" y="451" class="val">R2: 30kΩ        0603        FB divider bottom     C22984  Bas</text>
<text x="570" y="466" class="val">R3: 220kΩ       0603        FB divider top        C22961  Bas</text>
<text x="570" y="481" class="val">R5: 2kΩ         0402        Charge current set    C4109   Bas</text>
<text x="570" y="496" class="val">R8: 100kΩ       0402        Gate pull-up          C25741  Bas</text>
<text x="570" y="511" class="val">C1: 10µF        0603        Boost input           -       Bas</text>
<text x="570" y="526" class="val">C2: 22µF        0805        Boost output          -       Bas</text>
<text x="570" y="541" class="val">C5,C6: 4.7µF    0603        TP4056 decoupling     -       Bas</text>
</svg>