<svg xmlns="http://www.w3.org/2000/svg" xmlns:xlink="http://www.w3.org/1999/xlink" xmlns:s="https://github.com/nturley/netlistsvg" width="984" height="678.5">
  <style>svg {
    stroke:#000;
    fill:none;
  }
  text {
    fill:#000;
    stroke:none;
    font-size:10px;
    font-weight: bold;
    font-family: "Courier New", monospace;
  }
  .nodelabel {
    text-anchor: middle;
  }
  .inputPortLabel {
    text-anchor: end;
  }
  .splitjoinBody {
    fill:#000;
  }</style>
  <g s:type="generic" transform="translate(223,208)" s:width="30" s:height="40" id="cell_U2\nTP4056">
    <text x="15" y="-4" class="nodelabel cell_U2\nTP4056" s:attribute="ref">TP4056</text>
    <rect width="30" height="100" s:generic="body" class="cell_U2\nTP4056"/>
    <g transform="translate(0,10)" s:x="0" s:y="10" s:pid="in0" id="port_U2\nTP4056~VCC">
      <text x="-3" y="-4" class="inputPortLabel cell_U2\nTP4056">VCC</text>
    </g>
    <g transform="translate(0,30)" s:x="0" s:y="10" s:pid="in0" id="port_U2\nTP4056~CE">
      <text x="-3" y="-4" class="inputPortLabel cell_U2\nTP4056">CE</text>
    </g>
    <g transform="translate(0,50)" s:x="0" s:y="10" s:pid="in0" id="port_U2\nTP4056~TEMP">
      <text x="-3" y="-4" class="inputPortLabel cell_U2\nTP4056">TEMP</text>
    </g>
    <g transform="translate(0,70)" s:x="0" s:y="10" s:pid="in0" id="port_U2\nTP4056~GND">
      <text x="-3" y="-4" class="inputPortLabel cell_U2\nTP4056">GND</text>
    </g>
    <g transform="translate(0,90)" s:x="0" s:y="10" s:pid="in0" id="port_U2\nTP4056~EP">
      <text x="-3" y="-4" class="inputPortLabel cell_U2\nTP4056">EP</text>
    </g>
    <g transform="translate(30,10)" s:x="30" s:y="10" s:pid="out0" id="port_U2\nTP4056~PROG">
      <text x="5" y="-4" style="fill:#000; stroke:none" class="cell_U2\nTP4056">PROG</text>
    </g>
    <g transform="translate(30,30)" s:x="30" s:y="10" s:pid="out0" id="port_U2\nTP4056~BAT">
      <text x="5" y="-4" style="fill:#000; stroke:none" class="cell_U2\nTP4056">BAT</text>
    </g>
    <g transform="translate(30,50)" s:x="30" s:y="10" s:pid="out0" id="port_U2\nTP4056~nCHRG">
      <text x="5" y="-4" style="fill:#000; stroke:none" class="cell_U2\nTP4056">nCHRG</text>
    </g>
    <g transform="translate(30,70)" s:x="30" s:y="10" s:pid="out0" id="port_U2\nTP4056~nSTDBY">
      <text x="5" y="-4" style="fill:#000; stroke:none" class="cell_U2\nTP4056">nSTDBY</text>
    </g>
  </g>
  <g s:type="generic" transform="translate(109,384)" s:width="30" s:height="40" id="cell_R5\n2kΩ">
    <text x="15" y="-4" class="nodelabel cell_R5\n2kΩ" s:attribute="ref">resistor</text>
    <rect width="30" height="20" s:generic="body" class="cell_R5\n2kΩ"/>
    <g transform="translate(0,10)" s:x="0" s:y="10" s:pid="in0" id="port_R5\n2kΩ~A">
      <text x="-3" y="-4" class="inputPortLabel cell_R5\n2kΩ">A</text>
    </g>
    <g transform="translate(30,10)" s:x="30" s:y="10" s:pid="out0" id="port_R5\n2kΩ~B">
      <text x="5" y="-4" style="fill:#000; stroke:none" class="cell_R5\n2kΩ">B</text>
    </g>
  </g>
  <g s:type="generic" transform="translate(109,44)" s:width="30" s:height="40" id="cell_C6\n4.7µF">
    <text x="15" y="-4" class="nodelabel cell_C6\n4.7µF" s:attribute="ref">capacitor</text>
    <rect width="30" height="20" s:generic="body" class="cell_C6\n4.7µF"/>
    <g transform="translate(0,10)" s:x="0" s:y="10" s:pid="in0" id="port_C6\n4.7µF~+">
      <text x="-3" y="-4" class="inputPortLabel cell_C6\n4.7µF">+</text>
    </g>
    <g transform="translate(30,10)" s:x="30" s:y="10" s:pid="out0" id="port_C6\n4.7µF~-">
      <text x="5" y="-4" style="fill:#000; stroke:none" class="cell_C6\n4.7µF">-</text>
    </g>
  </g>
  <g s:type="generic" transform="translate(109,112)" s:width="30" s:height="40" id="cell_C5\n4.7µF">
    <text x="15" y="-4" class="nodelabel cell_C5\n4.7µF" s:attribute="ref">capacitor</text>
    <rect width="30" height="20" s:generic="body" class="cell_C5\n4.7µF"/>
    <g transform="translate(0,10)" s:x="0" s:y="10" s:pid="in0" id="port_C5\n4.7µF~+">
      <text x="-3" y="-4" class="inputPortLabel cell_C5\n4.7µF">+</text>
    </g>
    <g transform="translate(30,10)" s:x="30" s:y="10" s:pid="out0" id="port_C5\n4.7µF~-">
      <text x="5" y="-4" style="fill:#000; stroke:none" class="cell_C5\n4.7µF">-</text>
    </g>
  </g>
  <g s:type="generic" transform="translate(434,471.5)" s:width="30" s:height="40" id="cell_Q1\nAO3401A\n(P-MOSFET)">
    <text x="15" y="-4" class="nodelabel cell_Q1\nAO3401A\n(P-MOSFET)" s:attribute="ref">AO3401A</text>
    <rect width="30" height="40" s:generic="body" class="cell_Q1\nAO3401A\n(P-MOSFET)"/>
    <g transform="translate(0,10)" s:x="0" s:y="10" s:pid="in0" id="port_Q1\nAO3401A\n(P-MOSFET)~S">
      <text x="-3" y="-4" class="inputPortLabel cell_Q1\nAO3401A\n(P-MOSFET)">S</text>
    </g>
    <g transform="translate(0,30)" s:x="0" s:y="10" s:pid="in0" id="port_Q1\nAO3401A\n(P-MOSFET)~G">
      <text x="-3" y="-4" class="inputPortLabel cell_Q1\nAO3401A\n(P-MOSFET)">G</text>
    </g>
    <g transform="translate(30,10)" s:x="30" s:y="10" s:pid="out0" id="port_Q1\nAO3401A\n(P-MOSFET)~D">
      <text x="5" y="-4" style="fill:#000; stroke:none" class="cell_Q1\nAO3401A\n(P-MOSFET)">D</text>
    </g>
  </g>
  <g s:type="generic" transform="translate(338,491.5)" s:width="30" s:height="40" id="cell_R8\n100kΩ">
    <text x="15" y="-4" class="nodelabel cell_R8\n100kΩ" s:attribute="ref">resistor</text>
    <rect width="30" height="20" s:generic="body" class="cell_R8\n100kΩ"/>
    <g transform="translate(0,10)" s:x="0" s:y="10" s:pid="in0" id="port_R8\n100kΩ~A">
      <text x="-3" y="-4" class="inputPortLabel cell_R8\n100kΩ">A</text>
    </g>
    <g transform="translate(30,10)" s:x="30" s:y="10" s:pid="out0" id="port_R8\n100kΩ~B">
      <text x="5" y="-4" style="fill:#000; stroke:none" class="cell_R8\n100kΩ">B</text>
    </g>
  </g>
  <g s:type="generic" transform="translate(902,561)" s:width="30" s:height="40" id="cell_U1\nSX1308">
    <text x="15" y="-4" class="nodelabel cell_U1\nSX1308" s:attribute="ref">SX1308</text>
    <rect width="30" height="80" s:generic="body" class="cell_U1\nSX1308"/>
    <g transform="translate(0,10)" s:x="0" s:y="10" s:pid="in0" id="port_U1\nSX1308~VIN">
      <text x="-3" y="-4" class="inputPortLabel cell_U1\nSX1308">VIN</text>
    </g>
    <g transform="translate(0,30)" s:x="0" s:y="10" s:pid="in0" id="port_U1\nSX1308~EN">
      <text x="-3" y="-4" class="inputPortLabel cell_U1\nSX1308">EN</text>
    </g>
    <g transform="translate(0,50)" s:x="0" s:y="10" s:pid="in0" id="port_U1\nSX1308~GND">
      <text x="-3" y="-4" class="inputPortLabel cell_U1\nSX1308">GND</text>
    </g>
    <g transform="translate(0,70)" s:x="0" s:y="10" s:pid="in0" id="port_U1\nSX1308~FB">
      <text x="-3" y="-4" class="inputPortLabel cell_U1\nSX1308">FB</text>
    </g>
    <g transform="translate(30,10)" s:x="30" s:y="10" s:pid="out0" id="port_U1\nSX1308~SW">
      <text x="5" y="-4" style="fill:#000; stroke:none" class="cell_U1\nSX1308">SW</text>
    </g>
  </g>
  <g s:type="generic" transform="translate(614,471.5)" s:width="30" s:height="40" id="cell_L1\n22µH">
    <text x="15" y="-4" class="nodelabel cell_L1\n22µH" s:attribute="ref">inductor</text>
    <rect width="30" height="20" s:generic="body" class="cell_L1\n22µH"/>
    <g transform="translate(0,10)" s:x="0" s:y="10" s:pid="in0" id="port_L1\n22µH~1">
      <text x="-3" y="-4" class="inputPortLabel cell_L1\n22µH">1</text>
    </g>
    <g transform="translate(30,10)" s:x="30" s:y="10" s:pid="out0" id="port_L1\n22µH~2">
      <text x="5" y="-4" style="fill:#000; stroke:none" class="cell_L1\n22µH">2</text>
    </g>
  </g>
  <g s:type="generic" transform="translate(704,471.5)" s:width="30" s:height="40" id="cell_D1\nSS34">
    <text x="15" y="-4" class="nodelabel cell_D1\nSS34" s:attribute="ref">diode</text>
    <rect width="30" height="20" s:generic="body" class="cell_D1\nSS34"/>
    <g transform="translate(0,10)" s:x="0" s:y="10" s:pid="in0" id="port_D1\nSS34~A">
      <text x="-3" y="-4" class="inputPortLabel cell_D1\nSS34">A</text>
    </g>
    <g transform="translate(30,10)" s:x="30" s:y="10" s:pid="out0" id="port_D1\nSS34~K">
      <text x="5" y="-4" style="fill:#000; stroke:none" class="cell_D1\nSS34">K</text>
    </g>
  </g>
  <g s:type="generic" transform="translate(794,632.5)" s:width="30" s:height="40" id="cell_R3\n220kΩ">
    <text x="15" y="-4" class="nodelabel cell_R3\n220kΩ" s:attribute="ref">resistor</text>
    <rect width="30" height="20" s:generic="body" class="cell_R3\n220kΩ"/>
    <g transform="translate(0,10)" s:x="0" s:y="10" s:pid="in0" id="port_R3\n220kΩ~A">
      <text x="-3" y="-4" class="inputPortLabel cell_R3\n220kΩ">A</text>
    </g>
    <g transform="translate(30,10)" s:x="30" s:y="10" s:pid="out0" id="port_R3\n220kΩ~B">
      <text x="5" y="-4" style="fill:#000; stroke:none" class="cell_R3\n220kΩ">B</text>
    </g>
  </g>
  <g s:type="generic" transform="translate(109,180)" s:width="30" s:height="40" id="cell_R2\n30kΩ">
    <text x="15" y="-4" class="nodelabel cell_R2\n30kΩ" s:attribute="ref">resistor</text>
    <rect width="30" height="20" s:generic="body" class="cell_R2\n30kΩ"/>
    <g transform="translate(0,10)" s:x="0" s:y="10" s:pid="in0" id="port_R2\n30kΩ~A">
      <text x="-3" y="-4" class="inputPortLabel cell_R2\n30kΩ">A</text>
    </g>
    <g transform="translate(30,10)" s:x="30" s:y="10" s:pid="out0" id="port_R2\n30kΩ~B">
      <text x="5" y="-4" style="fill:#000; stroke:none" class="cell_R2\n30kΩ">B</text>
    </g>
  </g>
  <g s:type="generic" transform="translate(109,316)" s:width="30" s:height="40" id="cell_C1\n10µF">
    <text x="15" y="-4" class="nodelabel cell_C1\n10µF" s:attribute="ref">capacitor</text>
    <rect width="30" height="20" s:generic="body" class="cell_C1\n10µF"/>
    <g transform="translate(0,10)" s:x="0" s:y="10" s:pid="in0" id="port_C1\n10µF~+">
      <text x="-3" y="-4" class="inputPortLabel cell_C1\n10µF">+</text>
    </g>
    <g transform="translate(30,10)" s:x="30" s:y="10" s:pid="out0" id="port_C1\n10µF~-">
      <text x="5" y="-4" style="fill:#000; stroke:none" class="cell_C1\n10µF">-</text>
    </g>
  </g>
  <g s:type="generic" transform="translate(109,248)" s:width="30" s:height="40" id="cell_C2\n22µF">
    <text x="15" y="-4" class="nodelabel cell_C2\n22µF" s:attribute="ref">capacitor</text>
    <rect width="30" height="20" s:generic="body" class="cell_C2\n22µF"/>
    <g transform="translate(0,10)" s:x="0" s:y="10" s:pid="in0" id="port_C2\n22µF~+">
      <text x="-3" y="-4" class="inputPortLabel cell_C2\n22µF">+</text>
    </g>
    <g transform="translate(30,10)" s:x="30" s:y="10" s:pid="out0" id="port_C2\n22µF~-">
      <text x="5" y="-4" style="fill:#000; stroke:none" class="cell_C2\n22µF">-</text>
    </g>
  </g>
  <g s:type="inputExt" transform="translate(12,44.5)" s:width="30" s:height="20" id="cell_VUSB">
    <text x="15" y="-4" class="nodelabel cell_VUSB" s:attribute="ref">VUSB</text>
    <s:alias val="$_inputExt_"/>
    <path d="M0,0 L0,20 L15,20 L30,10 L15,0 Z" class="cell_VUSB"/>
    <g s:x="28" s:y="10" s:pid="Y"/>
  </g>
  <g s:type="inputExt" transform="translate(109,452)" s:width="30" s:height="20" id="cell_GND">
    <text x="15" y="-4" class="nodelabel cell_GND" s:attribute="ref">GND</text>
    <s:alias val="$_inputExt_"/>
    <path d="M0,0 L0,20 L15,20 L30,10 L15,0 Z" class="cell_GND"/>
    <g s:x="28" s:y="10" s:pid="Y"/>
  </g>
  <g s:type="inputExt" transform="translate(12,492)" s:width="30" s:height="20" id="cell_VBAT">
    <text x="15" y="-4" class="nodelabel cell_VBAT" s:attribute="ref">VBAT</text>
    <s:alias val="$_inputExt_"/>
    <path d="M0,0 L0,20 L15,20 L30,10 L15,0 Z" class="cell_VBAT"/>
    <g s:x="28" s:y="10" s:pid="Y"/>
  </g>
  <g s:type="inputExt" transform="translate(338,559.5)" s:width="30" s:height="20" id="cell_PI_EN">
    <text x="15" y="-4" class="nodelabel cell_PI_EN" s:attribute="ref">PI_EN</text>
    <s:alias val="$_inputExt_"/>
    <path d="M0,0 L0,20 L15,20 L30,10 L15,0 Z" class="cell_PI_EN"/>
    <g s:x="28" s:y="10" s:pid="Y"/>
  </g>
  <g s:type="outputExt" transform="translate(902,152.5)" s:width="30" s:height="20" id="cell_V5_PI">
    <text x="15" y="-4" class="nodelabel cell_V5_PI" s:attribute="ref">V5_PI</text>
    <s:alias val="$_outputExt_"/>
    <path d="M30,0 L30,20 L15,20 L0,10 L15,0 Z" class="cell_V5_PI"/>
    <g s:x="0" s:y="10" s:pid="A"/>
  </g>
  <g s:type="outputExt" transform="translate(902,217.5)" s:width="30" s:height="20" id="cell_CHG_STAT">
    <text x="15" y="-4" class="nodelabel cell_CHG_STAT" s:attribute="ref">CHG_STAT</text>
    <s:alias val="$_outputExt_"/>
    <path d="M30,0 L30,20 L15,20 L0,10 L15,0 Z" class="cell_CHG_STAT"/>
    <g s:x="0" s:y="10" s:pid="A"/>
  </g>
  <line x1="40" x2="62" y1="54.5" y2="54.5" class="net_2"/>
  <line x1="62" x2="62" y1="54.5" y2="23" class="net_2"/>
  <line x1="62" x2="183" y1="23" y2="23" class="net_2"/>
  <line x1="183" x2="183" y1="23" y2="218.5" class="net_2"/>
  <circle cx="62" cy="54.5" r="2" style="fill:#000" class="net_2"/>
  <circle cx="183" cy="218.5" r="2" style="fill:#000" class="net_2"/>
  <line x1="183" x2="223" y1="218.5" y2="218.5" class="net_2"/>
  <line x1="40" x2="62" y1="54.5" y2="54.5" class="net_2"/>
  <line x1="62" x2="62" y1="54.5" y2="23" class="net_2"/>
  <line x1="62" x2="183" y1="23" y2="23" class="net_2"/>
  <line x1="183" x2="183" y1="23" y2="238.5" class="net_2"/>
  <line x1="183" x2="223" y1="238.5" y2="238.5" class="net_2"/>
  <line x1="40" x2="109" y1="54.5" y2="54.5" class="net_2"/>
  <line x1="140" x2="173" y1="394.5" y2="394.5" class="net_3"/>
  <line x1="173" x2="173" y1="394.5" y2="258.5" class="net_3"/>
  <circle cx="173" cy="394.5" r="2" style="fill:#000" class="net_3"/>
  <line x1="173" x2="223" y1="258.5" y2="258.5" class="net_3"/>
  <line x1="140" x2="173" y1="394.5" y2="394.5" class="net_3"/>
  <line x1="173" x2="173" y1="394.5" y2="278.5" class="net_3"/>
  <line x1="173" x2="223" y1="278.5" y2="278.5" class="net_3"/>
  <line x1="140" x2="173" y1="394.5" y2="394.5" class="net_3"/>
  <line x1="173" x2="173" y1="394.5" y2="298.5" class="net_3"/>
  <line x1="173" x2="223" y1="298.5" y2="298.5" class="net_3"/>
  <line x1="140" x2="173" y1="394.5" y2="394.5" class="net_3"/>
  <line x1="173" x2="173" y1="394.5" y2="611.5" class="net_3"/>
  <line x1="173" x2="902" y1="611.5" y2="611.5" class="net_3"/>
  <line x1="140" x2="173" y1="54.5" y2="54.5" class="net_3"/>
  <line x1="173" x2="173" y1="54.5" y2="258.5" class="net_3"/>
  <circle cx="173" cy="258.5" r="2" style="fill:#000" class="net_3"/>
  <line x1="173" x2="223" y1="258.5" y2="258.5" class="net_3"/>
  <line x1="140" x2="173" y1="54.5" y2="54.5" class="net_3"/>
  <line x1="173" x2="173" y1="54.5" y2="278.5" class="net_3"/>
  <circle cx="173" cy="278.5" r="2" style="fill:#000" class="net_3"/>
  <line x1="173" x2="223" y1="278.5" y2="278.5" class="net_3"/>
  <line x1="140" x2="173" y1="54.5" y2="54.5" class="net_3"/>
  <line x1="173" x2="173" y1="54.5" y2="298.5" class="net_3"/>
  <circle cx="173" cy="298.5" r="2" style="fill:#000" class="net_3"/>
  <line x1="173" x2="223" y1="298.5" y2="298.5" class="net_3"/>
  <line x1="140" x2="173" y1="54.5" y2="54.5" class="net_3"/>
  <line x1="173" x2="173" y1="54.5" y2="611.5" class="net_3"/>
  <line x1="173" x2="902" y1="611.5" y2="611.5" class="net_3"/>
  <line x1="140" x2="173" y1="122.5" y2="122.5" class="net_3"/>
  <line x1="173" x2="173" y1="122.5" y2="258.5" class="net_3"/>
  <circle cx="173" cy="122.5" r="2" style="fill:#000" class="net_3"/>
  <line x1="173" x2="223" y1="258.5" y2="258.5" class="net_3"/>
  <line x1="140" x2="173" y1="122.5" y2="122.5" class="net_3"/>
  <line x1="173" x2="173" y1="122.5" y2="278.5" class="net_3"/>
  <line x1="173" x2="223" y1="278.5" y2="278.5" class="net_3"/>
  <line x1="140" x2="173" y1="122.5" y2="122.5" class="net_3"/>
  <line x1="173" x2="173" y1="122.5" y2="298.5" class="net_3"/>
  <line x1="173" x2="223" y1="298.5" y2="298.5" class="net_3"/>
  <line x1="140" x2="173" y1="122.5" y2="122.5" class="net_3"/>
  <line x1="173" x2="173" y1="122.5" y2="611.5" class="net_3"/>
  <line x1="173" x2="902" y1="611.5" y2="611.5" class="net_3"/>
  <line x1="140" x2="173" y1="190.5" y2="190.5" class="net_3"/>
  <line x1="173" x2="173" y1="190.5" y2="258.5" class="net_3"/>
  <circle cx="173" cy="190.5" r="2" style="fill:#000" class="net_3"/>
  <line x1="173" x2="223" y1="258.5" y2="258.5" class="net_3"/>
  <line x1="140" x2="173" y1="190.5" y2="190.5" class="net_3"/>
  <line x1="173" x2="173" y1="190.5" y2="278.5" class="net_3"/>
  <line x1="173" x2="223" y1="278.5" y2="278.5" class="net_3"/>
  <line x1="140" x2="173" y1="190.5" y2="190.5" class="net_3"/>
  <line x1="173" x2="173" y1="190.5" y2="298.5" class="net_3"/>
  <line x1="173" x2="223" y1="298.5" y2="298.5" class="net_3"/>
  <line x1="140" x2="173" y1="190.5" y2="190.5" class="net_3"/>
  <line x1="173" x2="173" y1="190.5" y2="611.5" class="net_3"/>
  <line x1="173" x2="902" y1="611.5" y2="611.5" class="net_3"/>
  <line x1="140" x2="173" y1="326.5" y2="326.5" class="net_3"/>
  <line x1="173" x2="173" y1="326.5" y2="258.5" class="net_3"/>
  <circle cx="173" cy="326.5" r="2" style="fill:#000" class="net_3"/>
  <line x1="173" x2="223" y1="258.5" y2="258.5" class="net_3"/>
  <line x1="140" x2="173" y1="326.5" y2="326.5" class="net_3"/>
  <line x1="173" x2="173" y1="326.5" y2="278.5" class="net_3"/>
  <line x1="173" x2="223" y1="278.5" y2="278.5" class="net_3"/>
  <line x1="140" x2="173" y1="326.5" y2="326.5" class="net_3"/>
  <line x1="173" x2="173" y1="326.5" y2="298.5" class="net_3"/>
  <line x1="173" x2="223" y1="298.5" y2="298.5" class="net_3"/>
  <line x1="140" x2="173" y1="326.5" y2="326.5" class="net_3"/>
  <line x1="173" x2="173" y1="326.5" y2="611.5" class="net_3"/>
  <line x1="173" x2="902" y1="611.5" y2="611.5" class="net_3"/>
  <line x1="140" x2="223" y1="258.5" y2="258.5" class="net_3"/>
  <line x1="140" x2="173" y1="258.5" y2="258.5" class="net_3"/>
  <line x1="173" x2="173" y1="258.5" y2="278.5" class="net_3"/>
  <line x1="173" x2="223" y1="278.5" y2="278.5" class="net_3"/>
  <line x1="140" x2="173" y1="258.5" y2="258.5" class="net_3"/>
  <line x1="173" x2="173" y1="258.5" y2="298.5" class="net_3"/>
  <line x1="173" x2="223" y1="298.5" y2="298.5" class="net_3"/>
  <line x1="140" x2="173" y1="258.5" y2="258.5" class="net_3"/>
  <line x1="173" x2="173" y1="258.5" y2="611.5" class="net_3"/>
  <line x1="173" x2="902" y1="611.5" y2="611.5" class="net_3"/>
  <line x1="137" x2="173" y1="462" y2="462" class="net_3"/>
  <line x1="173" x2="173" y1="462" y2="258.5" class="net_3"/>
  <circle cx="173" cy="462" r="2" style="fill:#000" class="net_3"/>
  <line x1="173" x2="223" y1="258.5" y2="258.5" class="net_3"/>
  <line x1="137" x2="173" y1="462" y2="462" class="net_3"/>
  <line x1="173" x2="173" y1="462" y2="278.5" class="net_3"/>
  <line x1="173" x2="223" y1="278.5" y2="278.5" class="net_3"/>
  <line x1="137" x2="173" y1="462" y2="462" class="net_3"/>
  <line x1="173" x2="173" y1="462" y2="298.5" class="net_3"/>
  <line x1="173" x2="223" y1="298.5" y2="298.5" class="net_3"/>
  <line x1="137" x2="173" y1="462" y2="462" class="net_3"/>
  <line x1="173" x2="173" y1="462" y2="611.5" class="net_3"/>
  <line x1="173" x2="902" y1="611.5" y2="611.5" class="net_3"/>
  <line x1="254" x2="301" y1="218.5" y2="218.5" class="net_10"/>
  <line x1="301" x2="301" y1="218.5" y2="492" class="net_10"/>
  <line x1="301" x2="92" y1="492" y2="492" class="net_10"/>
  <line x1="92" x2="92" y1="492" y2="394.5" class="net_10"/>
  <line x1="92" x2="109" y1="394.5" y2="394.5" class="net_10"/>
  <line x1="254" x2="321" y1="238.5" y2="238.5" class="net_4"/>
  <line x1="321" x2="321" y1="238.5" y2="482" class="net_4"/>
  <line x1="321" x2="52" y1="482" y2="482" class="net_4"/>
  <line x1="52" x2="52" y1="482" y2="122.5" class="net_4"/>
  <circle cx="52" cy="482" r="2" style="fill:#000" class="net_4"/>
  <circle cx="321" cy="482" r="2" style="fill:#000" class="net_4"/>
  <line x1="52" x2="109" y1="122.5" y2="122.5" class="net_4"/>
  <line x1="254" x2="402" y1="238.5" y2="238.5" class="net_4"/>
  <line x1="402" x2="402" y1="238.5" y2="482" class="net_4"/>
  <line x1="402" x2="434" y1="482" y2="482" class="net_4"/>
  <line x1="254" x2="321" y1="238.5" y2="238.5" class="net_4"/>
  <line x1="321" x2="321" y1="238.5" y2="502" class="net_4"/>
  <circle cx="321" cy="502" r="2" style="fill:#000" class="net_4"/>
  <line x1="321" x2="338" y1="502" y2="502" class="net_4"/>
  <line x1="40" x2="52" y1="502" y2="502" class="net_4"/>
  <line x1="52" x2="52" y1="502" y2="122.5" class="net_4"/>
  <circle cx="52" cy="502" r="2" style="fill:#000" class="net_4"/>
  <circle cx="52" cy="122.5" r="2" style="fill:#000" class="net_4"/>
  <line x1="52" x2="109" y1="122.5" y2="122.5" class="net_4"/>
  <line x1="40" x2="52" y1="502" y2="502" class="net_4"/>
  <line x1="52" x2="52" y1="502" y2="12" class="net_4"/>
  <line x1="52" x2="321" y1="12" y2="12" class="net_4"/>
  <line x1="321" x2="321" y1="12" y2="238.5" class="net_4"/>
  <line x1="321" x2="402" y1="238.5" y2="238.5" class="net_4"/>
  <line x1="402" x2="402" y1="238.5" y2="482" class="net_4"/>
  <circle cx="321" cy="238.5" r="2" style="fill:#000" class="net_4"/>
  <line x1="402" x2="434" y1="482" y2="482" class="net_4"/>
  <line x1="40" x2="338" y1="502" y2="502" class="net_4"/>
  <line x1="369" x2="434" y1="502" y2="502" class="net_5"/>
  <line x1="366" x2="402" y1="569.5" y2="569.5" class="net_5"/>
  <line x1="402" x2="402" y1="569.5" y2="502" class="net_5"/>
  <circle cx="402" cy="502" r="2" style="fill:#000" class="net_5"/>
  <line x1="402" x2="434" y1="502" y2="502" class="net_5"/>
  <line x1="465" x2="582" y1="482" y2="482" class="net_8"/>
  <line x1="582" x2="582" y1="482" y2="450.5" class="net_8"/>
  <line x1="582" x2="858" y1="450.5" y2="450.5" class="net_8"/>
  <line x1="858" x2="858" y1="450.5" y2="571.5" class="net_8"/>
  <circle cx="582" cy="482" r="2" style="fill:#000" class="net_8"/>
  <circle cx="858" cy="571.5" r="2" style="fill:#000" class="net_8"/>
  <line x1="858" x2="902" y1="571.5" y2="571.5" class="net_8"/>
  <line x1="465" x2="582" y1="482" y2="482" class="net_8"/>
  <line x1="582" x2="582" y1="482" y2="450.5" class="net_8"/>
  <line x1="582" x2="858" y1="450.5" y2="450.5" class="net_8"/>
  <line x1="858" x2="858" y1="450.5" y2="591.5" class="net_8"/>
  <line x1="858" x2="902" y1="591.5" y2="591.5" class="net_8"/>
  <line x1="465" x2="614" y1="482" y2="482" class="net_8"/>
  <line x1="465" x2="582" y1="482" y2="482" class="net_8"/>
  <line x1="582" x2="582" y1="482" y2="589.5" class="net_8"/>
  <line x1="582" x2="82" y1="589.5" y2="589.5" class="net_8"/>
  <line x1="82" x2="82" y1="589.5" y2="326.5" class="net_8"/>
  <line x1="82" x2="109" y1="326.5" y2="326.5" class="net_8"/>
  <line x1="825" x2="858" y1="643" y2="643" class="net_12"/>
  <line x1="858" x2="858" y1="643" y2="631.5" class="net_12"/>
  <circle cx="858" cy="643" r="2" style="fill:#000" class="net_12"/>
  <line x1="858" x2="902" y1="631.5" y2="631.5" class="net_12"/>
  <line x1="825" x2="858" y1="643" y2="643" class="net_12"/>
  <line x1="858" x2="858" y1="643" y2="665.5" class="net_12"/>
  <line x1="858" x2="62" y1="665.5" y2="665.5" class="net_12"/>
  <line x1="62" x2="62" y1="665.5" y2="190.5" class="net_12"/>
  <line x1="62" x2="109" y1="190.5" y2="190.5" class="net_12"/>
  <line x1="933" x2="972" y1="571.5" y2="571.5" class="net_9"/>
  <line x1="972" x2="972" y1="571.5" y2="132.5" class="net_9"/>
  <line x1="972" x2="672" y1="132.5" y2="132.5" class="net_9"/>
  <line x1="672" x2="672" y1="132.5" y2="482" class="net_9"/>
  <circle cx="672" cy="482" r="2" style="fill:#000" class="net_9"/>
  <line x1="672" x2="704" y1="482" y2="482" class="net_9"/>
  <line x1="645" x2="704" y1="482" y2="482" class="net_9"/>
  <line x1="735" x2="762" y1="482" y2="482" class="net_6"/>
  <line x1="762" x2="762" y1="482" y2="643" class="net_6"/>
  <circle cx="762" cy="482" r="2" style="fill:#000" class="net_6"/>
  <line x1="762" x2="794" y1="643" y2="643" class="net_6"/>
  <line x1="735" x2="762" y1="482" y2="482" class="net_6"/>
  <line x1="762" x2="762" y1="482" y2="600.5" class="net_6"/>
  <line x1="762" x2="72" y1="600.5" y2="600.5" class="net_6"/>
  <line x1="72" x2="72" y1="600.5" y2="258.5" class="net_6"/>
  <circle cx="762" cy="600.5" r="2" style="fill:#000" class="net_6"/>
  <line x1="72" x2="109" y1="258.5" y2="258.5" class="net_6"/>
  <line x1="735" x2="762" y1="482" y2="482" class="net_6"/>
  <line x1="762" x2="762" y1="482" y2="162.5" class="net_6"/>
  <line x1="762" x2="902" y1="162.5" y2="162.5" class="net_6"/>
  <line x1="254" x2="311" y1="258.5" y2="258.5" class="net_7"/>
  <line x1="311" x2="311" y1="258.5" y2="227.5" class="net_7"/>
  <line x1="311" x2="902" y1="227.5" y2="227.5" class="net_7"/>
</svg>
