<svg xmlns="http://www.w3.org/2000/svg" xmlns:xlink="http://www.w3.org/1999/xlink" xmlns:s="https://github.com/nturley/netlistsvg" width="858" height="678.5">
  <style>svg {
    stroke:#000;
    fill:none;
  }
  text {
    fill:#000;
    stroke:none;
    font-size:10px;
    font-weight: bold;
    font-family: "Courier New", monospace;
  }
  .nodelabel {
    text-anchor: middle;
  }
  .inputPortLabel {
    text-anchor: end;
  }
  .splitjoinBody {
    fill:#000;
  }</style>
  <g s:type="generic" transform="translate(217,208)" s:width="30" s:height="40" id="cell_U2 TP4056">
    <text x="15" y="-4" class="nodelabel cell_U2 TP4056" s:attribute="ref">U2 TP4056</text>
    <rect width="30" height="100" s:generic="body" class="cell_U2 TP4056"/>
    <g transform="translate(0,10)" s:x="0" s:y="10" s:pid="in0" id="port_U2 TP4056~VCC">
      <text x="-3" y="-4" class="inputPortLabel cell_U2 TP4056">VCC</text>
    </g>
    <g transform="translate(0,30)" s:x="0" s:y="10" s:pid="in0" id="port_U2 TP4056~CE">
      <text x="-3" y="-4" class="inputPortLabel cell_U2 TP4056">CE</text>
    </g>
    <g transform="translate(0,50)" s:x="0" s:y="10" s:pid="in0" id="port_U2 TP4056~TEMP">
      <text x="-3" y="-4" class="inputPortLabel cell_U2 TP4056">TEMP</text>
    </g>
    <g transform="translate(0,70)" s:x="0" s:y="10" s:pid="in0" id="port_U2 TP4056~GND">
      <text x="-3" y="-4" class="inputPortLabel cell_U2 TP4056">GND</text>
    </g>
    <g transform="translate(0,90)" s:x="0" s:y="10" s:pid="in0" id="port_U2 TP4056~EP">
      <text x="-3" y="-4" class="inputPortLabel cell_U2 TP4056">EP</text>
    </g>
    <g transform="translate(30,10)" s:x="30" s:y="10" s:pid="out0" id="port_U2 TP4056~PROG">
      <text x="5" y="-4" style="fill:#000; stroke:none" class="cell_U2 TP4056">PROG</text>
    </g>
    <g transform="translate(30,30)" s:x="30" s:y="10" s:pid="out0" id="port_U2 TP4056~BAT">
      <text x="5" y="-4" style="fill:#000; stroke:none" class="cell_U2 TP4056">BAT</text>
    </g>
    <g transform="translate(30,50)" s:x="30" s:y="10" s:pid="out0" id="port_U2 TP4056~nCHRG">
      <text x="5" y="-4" style="fill:#000; stroke:none" class="cell_U2 TP4056">nCHRG</text>
    </g>
    <g transform="translate(30,70)" s:x="30" s:y="10" s:pid="out0" id="port_U2 TP4056~nSTDBY">
      <text x="5" y="-4" style="fill:#000; stroke:none" class="cell_U2 TP4056">nSTDBY</text>
    </g>
  </g>
  <g s:type="generic" transform="translate(109,384)" s:width="30" s:height="40" id="cell_R5 2k">
    <text x="15" y="-4" class="nodelabel cell_R5 2k" s:attribute="ref">R5 2kΩ</text>
    <rect width="30" height="20" s:generic="body" class="cell_R5 2k"/>
    <g transform="translate(0,10)" s:x="0" s:y="10" s:pid="in0" id="port_R5 2k~A">
      <text x="-3" y="-4" class="inputPortLabel cell_R5 2k">A</text>
    </g>
    <g transform="translate(30,10)" s:x="30" s:y="10" s:pid="out0" id="port_R5 2k~B">
      <text x="5" y="-4" style="fill:#000; stroke:none" class="cell_R5 2k">B</text>
    </g>
  </g>
  <g s:type="generic" transform="translate(109,44)" s:width="30" s:height="40" id="cell_C6 4.7uF">
    <text x="15" y="-4" class="nodelabel cell_C6 4.7uF" s:attribute="ref">C6 4.7µF</text>
    <rect width="30" height="20" s:generic="body" class="cell_C6 4.7uF"/>
    <g transform="translate(0,10)" s:x="0" s:y="10" s:pid="in0" id="port_C6 4.7uF~+">
      <text x="-3" y="-4" class="inputPortLabel cell_C6 4.7uF">+</text>
    </g>
    <g transform="translate(30,10)" s:x="30" s:y="10" s:pid="out0" id="port_C6 4.7uF~-">
      <text x="5" y="-4" style="fill:#000; stroke:none" class="cell_C6 4.7uF">-</text>
    </g>
  </g>
  <g s:type="generic" transform="translate(109,112)" s:width="30" s:height="40" id="cell_C5 4.7uF">
    <text x="15" y="-4" class="nodelabel cell_C5 4.7uF" s:attribute="ref">C5 4.7µF</text>
    <rect width="30" height="20" s:generic="body" class="cell_C5 4.7uF"/>
    <g transform="translate(0,10)" s:x="0" s:y="10" s:pid="in0" id="port_C5 4.7uF~+">
      <text x="-3" y="-4" class="inputPortLabel cell_C5 4.7uF">+</text>
    </g>
    <g transform="translate(30,10)" s:x="30" s:y="10" s:pid="out0" id="port_C5 4.7uF~-">
      <text x="5" y="-4" style="fill:#000; stroke:none" class="cell_C5 4.7uF">-</text>
    </g>
  </g>
  <g s:type="generic" transform="translate(416,471.5)" s:width="30" s:height="40" id="cell_Q1 AO3401A">
    <text x="15" y="-4" class="nodelabel cell_Q1 AO3401A" s:attribute="ref">Q1 AO3401A P-FET</text>
    <rect width="30" height="40" s:generic="body" class="cell_Q1 AO3401A"/>
    <g transform="translate(0,10)" s:x="0" s:y="10" s:pid="in0" id="port_Q1 AO3401A~S">
      <text x="-3" y="-4" class="inputPortLabel cell_Q1 AO3401A">S</text>
    </g>
    <g transform="translate(0,30)" s:x="0" s:y="10" s:pid="in0" id="port_Q1 AO3401A~G">
      <text x="-3" y="-4" class="inputPortLabel cell_Q1 AO3401A">G</text>
    </g>
    <g transform="translate(30,10)" s:x="30" s:y="10" s:pid="out0" id="port_Q1 AO3401A~D">
      <text x="5" y="-4" style="fill:#000; stroke:none" class="cell_Q1 AO3401A">D</text>
    </g>
  </g>
  <g s:type="generic" transform="translate(332,491.5)" s:width="30" s:height="40" id="cell_R8 100k">
    <text x="15" y="-4" class="nodelabel cell_R8 100k" s:attribute="ref">R8 100kΩ</text>
    <rect width="30" height="20" s:generic="body" class="cell_R8 100k"/>
    <g transform="translate(0,10)" s:x="0" s:y="10" s:pid="in0" id="port_R8 100k~A">
      <text x="-3" y="-4" class="inputPortLabel cell_R8 100k">A</text>
    </g>
    <g transform="translate(30,10)" s:x="30" s:y="10" s:pid="out0" id="port_R8 100k~B">
      <text x="5" y="-4" style="fill:#000; stroke:none" class="cell_R8 100k">B</text>
    </g>
  </g>
  <g s:type="generic" transform="translate(782,561)" s:width="30" s:height="40" id="cell_U1 SX1308">
    <text x="15" y="-4" class="nodelabel cell_U1 SX1308" s:attribute="ref">U1 SX1308</text>
    <rect width="30" height="80" s:generic="body" class="cell_U1 SX1308"/>
    <g transform="translate(0,10)" s:x="0" s:y="10" s:pid="in0" id="port_U1 SX1308~VIN">
      <text x="-3" y="-4" class="inputPortLabel cell_U1 SX1308">VIN</text>
    </g>
    <g transform="translate(0,30)" s:x="0" s:y="10" s:pid="in0" id="port_U1 SX1308~EN">
      <text x="-3" y="-4" class="inputPortLabel cell_U1 SX1308">EN</text>
    </g>
    <g transform="translate(0,50)" s:x="0" s:y="10" s:pid="in0" id="port_U1 SX1308~GND">
      <text x="-3" y="-4" class="inputPortLabel cell_U1 SX1308">GND</text>
    </g>
    <g transform="translate(0,70)" s:x="0" s:y="10" s:pid="in0" id="port_U1 SX1308~FB">
      <text x="-3" y="-4" class="inputPortLabel cell_U1 SX1308">FB</text>
    </g>
    <g transform="translate(30,10)" s:x="30" s:y="10" s:pid="out0" id="port_U1 SX1308~SW">
      <text x="5" y="-4" style="fill:#000; stroke:none" class="cell_U1 SX1308">SW</text>
    </g>
  </g>
  <g s:type="generic" transform="translate(518,471.5)" s:width="30" s:height="40" id="cell_L1 22uH">
    <text x="15" y="-4" class="nodelabel cell_L1 22uH" s:attribute="ref">L1 22µH</text>
    <rect width="30" height="20" s:generic="body" class="cell_L1 22uH"/>
    <g transform="translate(0,10)" s:x="0" s:y="10" s:pid="in0" id="port_L1 22uH~1">
      <text x="-3" y="-4" class="inputPortLabel cell_L1 22uH">1</text>
    </g>
    <g transform="translate(30,10)" s:x="30" s:y="10" s:pid="out0" id="port_L1 22uH~2">
      <text x="5" y="-4" style="fill:#000; stroke:none" class="cell_L1 22uH">2</text>
    </g>
  </g>
  <g s:type="generic" transform="translate(602,471.5)" s:width="30" s:height="40" id="cell_D1 SS34">
    <text x="15" y="-4" class="nodelabel cell_D1 SS34" s:attribute="ref">D1 SS34</text>
    <rect width="30" height="20" s:generic="body" class="cell_D1 SS34"/>
    <g transform="translate(0,10)" s:x="0" s:y="10" s:pid="in0" id="port_D1 SS34~A">
      <text x="-3" y="-4" class="inputPortLabel cell_D1 SS34">A</text>
    </g>
    <g transform="translate(30,10)" s:x="30" s:y="10" s:pid="out0" id="port_D1 SS34~K">
      <text x="5" y="-4" style="fill:#000; stroke:none" class="cell_D1 SS34">K</text>
    </g>
  </g>
  <g s:type="generic" transform="translate(686,632.5)" s:width="30" s:height="40" id="cell_R3 220k">
    <text x="15" y="-4" class="nodelabel cell_R3 220k" s:attribute="ref">R3 220kΩ</text>
    <rect width="30" height="20" s:generic="body" class="cell_R3 220k"/>
    <g transform="translate(0,10)" s:x="0" s:y="10" s:pid="in0" id="port_R3 220k~A">
      <text x="-3" y="-4" class="inputPortLabel cell_R3 220k">A</text>
    </g>
    <g transform="translate(30,10)" s:x="30" s:y="10" s:pid="out0" id="port_R3 220k~B">
      <text x="5" y="-4" style="fill:#000; stroke:none" class="cell_R3 220k">B</text>
    </g>
  </g>
  <g s:type="generic" transform="translate(109,180)" s:width="30" s:height="40" id="cell_R2 30k">
    <text x="15" y="-4" class="nodelabel cell_R2 30k" s:attribute="ref">R2 30kΩ</text>
    <rect width="30" height="20" s:generic="body" class="cell_R2 30k"/>
    <g transform="translate(0,10)" s:x="0" s:y="10" s:pid="in0" id="port_R2 30k~A">
      <text x="-3" y="-4" class="inputPortLabel cell_R2 30k">A</text>
    </g>
    <g transform="translate(30,10)" s:x="30" s:y="10" s:pid="out0" id="port_R2 30k~B">
      <text x="5" y="-4" style="fill:#000; stroke:none" class="cell_R2 30k">B</text>
    </g>
  </g>
  <g s:type="generic" transform="translate(109,316)" s:width="30" s:height="40" id="cell_C1 10uF">
    <text x="15" y="-4" class="nodelabel cell_C1 10uF" s:attribute="ref">C1 10µF</text>
    <rect width="30" height="20" s:generic="body" class="cell_C1 10uF"/>
    <g transform="translate(0,10)" s:x="0" s:y="10" s:pid="in0" id="port_C1 10uF~+">
      <text x="-3" y="-4" class="inputPortLabel cell_C1 10uF">+</text>
    </g>
    <g transform="translate(30,10)" s:x="30" s:y="10" s:pid="out0" id="port_C1 10uF~-">
      <text x="5" y="-4" style="fill:#000; stroke:none" class="cell_C1 10uF">-</text>
    </g>
  </g>
  <g s:type="generic" transform="translate(109,248)" s:width="30" s:height="40" id="cell_C2 22uF">
    <text x="15" y="-4" class="nodelabel cell_C2 22uF" s:attribute="ref">C2 22µF</text>
    <rect width="30" height="20" s:generic="body" class="cell_C2 22uF"/>
    <g transform="translate(0,10)" s:x="0" s:y="10" s:pid="in0" id="port_C2 22uF~+">
      <text x="-3" y="-4" class="inputPortLabel cell_C2 22uF">+</text>
    </g>
    <g transform="translate(30,10)" s:x="30" s:y="10" s:pid="out0" id="port_C2 22uF~-">
      <text x="5" y="-4" style="fill:#000; stroke:none" class="cell_C2 22uF">-</text>
    </g>
  </g>
  <g s:type="inputExt" transform="translate(12,44.5)" s:width="30" s:height="20" id="cell_VUSB">
    <text x="15" y="-4" class="nodelabel cell_VUSB" s:attribute="ref">VUSB</text>
    <s:alias val="$_inputExt_"/>
    <path d="M0,0 L0,20 L15,20 L30,10 L15,0 Z" class="cell_VUSB"/>
    <g s:x="28" s:y="10" s:pid="Y"/>
  </g>
  <g s:type="inputExt" transform="translate(109,452)" s:width="30" s:height="20" id="cell_GND">
    <text x="15" y="-4" class="nodelabel cell_GND" s:attribute="ref">GND</text>
    <s:alias val="$_inputExt_"/>
    <path d="M0,0 L0,20 L15,20 L30,10 L15,0 Z" class="cell_GND"/>
    <g s:x="28" s:y="10" s:pid="Y"/>
  </g>
  <g s:type="inputExt" transform="translate(12,492)" s:width="30" s:height="20" id="cell_VBAT">
    <text x="15" y="-4" class="nodelabel cell_VBAT" s:attribute="ref">VBAT</text>
    <s:alias val="$_inputExt_"/>
    <path d="M0,0 L0,20 L15,20 L30,10 L15,0 Z" class="cell_VBAT"/>
    <g s:x="28" s:y="10" s:pid="Y"/>
  </g>
  <g s:type="inputExt" transform="translate(332,559.5)" s:width="30" s:height="20" id="cell_PI_EN">
    <text x="15" y="-4" class="nodelabel cell_PI_EN" s:attribute="ref">PI_EN</text>
    <s:alias val="$_inputExt_"/>
    <path d="M0,0 L0,20 L15,20 L30,10 L15,0 Z" class="cell_PI_EN"/>
    <g s:x="28" s:y="10" s:pid="Y"/>
  </g>
  <g s:type="outputExt" transform="translate(782,152.5)" s:width="30" s:height="20" id="cell_V5_PI">
    <text x="15" y="-4" class="nodelabel cell_V5_PI" s:attribute="ref">V5_PI</text>
    <s:alias val="$_outputExt_"/>
    <path d="M30,0 L30,20 L15,20 L0,10 L15,0 Z" class="cell_V5_PI"/>
    <g s:x="0" s:y="10" s:pid="A"/>
  </g>
  <g s:type="outputExt" transform="translate(782,217.5)" s:width="30" s:height="20" id="cell_CHG_STAT">
    <text x="15" y="-4" class="nodelabel cell_CHG_STAT" s:attribute="ref">CHG_STAT</text>
    <s:alias val="$_outputExt_"/>
    <path d="M30,0 L30,20 L15,20 L0,10 L15,0 Z" class="cell_CHG_STAT"/>
    <g s:x="0" s:y="10" s:pid="A"/>
  </g>
  <line x1="40" x2="62" y1="54.5" y2="54.5" class="net_2"/>
  <line x1="62" x2="62" y1="54.5" y2="23" class="net_2"/>
  <line x1="62" x2="177" y1="23" y2="23" class="net_2"/>
  <line x1="177" x2="177" y1="23" y2="218.5" class="net_2"/>
  <circle cx="62" cy="54.5" r="2" style="fill:#000" class="net_2"/>
  <circle cx="177" cy="218.5" r="2" style="fill:#000" class="net_2"/>
  <line x1="177" x2="217" y1="218.5" y2="218.5" class="net_2"/>
  <line x1="40" x2="62" y1="54.5" y2="54.5" class="net_2"/>
  <line x1="62" x2="62" y1="54.5" y2="23" class="net_2"/>
  <line x1="62" x2="177" y1="23" y2="23" class="net_2"/>
  <line x1="177" x2="177" y1="23" y2="238.5" class="net_2"/>
  <line x1="177" x2="217" y1="238.5" y2="238.5" class="net_2"/>
  <line x1="40" x2="109" y1="54.5" y2="54.5" class="net_2"/>
  <line x1="140" x2="167" y1="394.5" y2="394.5" class="net_3"/>
  <line x1="167" x2="167" y1="394.5" y2="258.5" class="net_3"/>
  <circle cx="167" cy="394.5" r="2" style="fill:#000" class="net_3"/>
  <line x1="167" x2="217" y1="258.5" y2="258.5" class="net_3"/>
  <line x1="140" x2="167" y1="394.5" y2="394.5" class="net_3"/>
  <line x1="167" x2="167" y1="394.5" y2="278.5" class="net_3"/>
  <line x1="167" x2="217" y1="278.5" y2="278.5" class="net_3"/>
  <line x1="140" x2="167" y1="394.5" y2="394.5" class="net_3"/>
  <line x1="167" x2="167" y1="394.5" y2="298.5" class="net_3"/>
  <line x1="167" x2="217" y1="298.5" y2="298.5" class="net_3"/>
  <line x1="140" x2="167" y1="394.5" y2="394.5" class="net_3"/>
  <line x1="167" x2="167" y1="394.5" y2="611.5" class="net_3"/>
  <line x1="167" x2="782" y1="611.5" y2="611.5" class="net_3"/>
  <line x1="140" x2="167" y1="54.5" y2="54.5" class="net_3"/>
  <line x1="167" x2="167" y1="54.5" y2="258.5" class="net_3"/>
  <circle cx="167" cy="258.5" r="2" style="fill:#000" class="net_3"/>
  <line x1="167" x2="217" y1="258.5" y2="258.5" class="net_3"/>
  <line x1="140" x2="167" y1="54.5" y2="54.5" class="net_3"/>
  <line x1="167" x2="167" y1="54.5" y2="278.5" class="net_3"/>
  <circle cx="167" cy="278.5" r="2" style="fill:#000" class="net_3"/>
  <line x1="167" x2="217" y1="278.5" y2="278.5" class="net_3"/>
  <line x1="140" x2="167" y1="54.5" y2="54.5" class="net_3"/>
  <line x1="167" x2="167" y1="54.5" y2="298.5" class="net_3"/>
  <circle cx="167" cy="298.5" r="2" style="fill:#000" class="net_3"/>
  <line x1="167" x2="217" y1="298.5" y2="298.5" class="net_3"/>
  <line x1="140" x2="167" y1="54.5" y2="54.5" class="net_3"/>
  <line x1="167" x2="167" y1="54.5" y2="611.5" class="net_3"/>
  <line x1="167" x2="782" y1="611.5" y2="611.5" class="net_3"/>
  <line x1="140" x2="167" y1="122.5" y2="122.5" class="net_3"/>
  <line x1="167" x2="167" y1="122.5" y2="258.5" class="net_3"/>
  <circle cx="167" cy="122.5" r="2" style="fill:#000" class="net_3"/>
  <line x1="167" x2="217" y1="258.5" y2="258.5" class="net_3"/>
  <line x1="140" x2="167" y1="122.5" y2="122.5" class="net_3"/>
  <line x1="167" x2="167" y1="122.5" y2="278.5" class="net_3"/>
  <line x1="167" x2="217" y1="278.5" y2="278.5" class="net_3"/>
  <line x1="140" x2="167" y1="122.5" y2="122.5" class="net_3"/>
  <line x1="167" x2="167" y1="122.5" y2="298.5" class="net_3"/>
  <line x1="167" x2="217" y1="298.5" y2="298.5" class="net_3"/>
  <line x1="140" x2="167" y1="122.5" y2="122.5" class="net_3"/>
  <line x1="167" x2="167" y1="122.5" y2="611.5" class="net_3"/>
  <line x1="167" x2="782" y1="611.5" y2="611.5" class="net_3"/>
  <line x1="140" x2="167" y1="190.5" y2="190.5" class="net_3"/>
  <line x1="167" x2="167" y1="190.5" y2="258.5" class="net_3"/>
  <circle cx="167" cy="190.5" r="2" style="fill:#000" class="net_3"/>
  <line x1="167" x2="217" y1="258.5" y2="258.5" class="net_3"/>
  <line x1="140" x2="167" y1="190.5" y2="190.5" class="net_3"/>
  <line x1="167" x2="167" y1="190.5" y2="278.5" class="net_3"/>
  <line x1="167" x2="217" y1="278.5" y2="278.5" class="net_3"/>
  <line x1="140" x2="167" y1="190.5" y2="190.5" class="net_3"/>
  <line x1="167" x2="167" y1="190.5" y2="298.5" class="net_3"/>
  <line x1="167" x2="217" y1="298.5" y2="298.5" class="net_3"/>
  <line x1="140" x2="167" y1="190.5" y2="190.5" class="net_3"/>
  <line x1="167" x2="167" y1="190.5" y2="611.5" class="net_3"/>
  <line x1="167" x2="782" y1="611.5" y2="611.5" class="net_3"/>
  <line x1="140" x2="167" y1="326.5" y2="326.5" class="net_3"/>
  <line x1="167" x2="167" y1="326.5" y2="258.5" class="net_3"/>
  <circle cx="167" cy="326.5" r="2" style="fill:#000" class="net_3"/>
  <line x1="167" x2="217" y1="258.5" y2="258.5" class="net_3"/>
  <line x1="140" x2="167" y1="326.5" y2="326.5" class="net_3"/>
  <line x1="167" x2="167" y1="326.5" y2="278.5" class="net_3"/>
  <line x1="167" x2="217" y1="278.5" y2="278.5" class="net_3"/>
  <line x1="140" x2="167" y1="326.5" y2="326.5" class="net_3"/>
  <line x1="167" x2="167" y1="326.5" y2="298.5" class="net_3"/>
  <line x1="167" x2="217" y1="298.5" y2="298.5" class="net_3"/>
  <line x1="140" x2="167" y1="326.5" y2="326.5" class="net_3"/>
  <line x1="167" x2="167" y1="326.5" y2="611.5" class="net_3"/>
  <line x1="167" x2="782" y1="611.5" y2="611.5" class="net_3"/>
  <line x1="140" x2="217" y1="258.5" y2="258.5" class="net_3"/>
  <line x1="140" x2="167" y1="258.5" y2="258.5" class="net_3"/>
  <line x1="167" x2="167" y1="258.5" y2="278.5" class="net_3"/>
  <line x1="167" x2="217" y1="278.5" y2="278.5" class="net_3"/>
  <line x1="140" x2="167" y1="258.5" y2="258.5" class="net_3"/>
  <line x1="167" x2="167" y1="258.5" y2="298.5" class="net_3"/>
  <line x1="167" x2="217" y1="298.5" y2="298.5" class="net_3"/>
  <line x1="140" x2="167" y1="258.5" y2="258.5" class="net_3"/>
  <line x1="167" x2="167" y1="258.5" y2="611.5" class="net_3"/>
  <line x1="167" x2="782" y1="611.5" y2="611.5" class="net_3"/>
  <line x1="137" x2="167" y1="462" y2="462" class="net_3"/>
  <line x1="167" x2="167" y1="462" y2="258.5" class="net_3"/>
  <circle cx="167" cy="462" r="2" style="fill:#000" class="net_3"/>
  <line x1="167" x2="217" y1="258.5" y2="258.5" class="net_3"/>
  <line x1="137" x2="167" y1="462" y2="462" class="net_3"/>
  <line x1="167" x2="167" y1="462" y2="278.5" class="net_3"/>
  <line x1="167" x2="217" y1="278.5" y2="278.5" class="net_3"/>
  <line x1="137" x2="167" y1="462" y2="462" class="net_3"/>
  <line x1="167" x2="167" y1="462" y2="298.5" class="net_3"/>
  <line x1="167" x2="217" y1="298.5" y2="298.5" class="net_3"/>
  <line x1="137" x2="167" y1="462" y2="462" class="net_3"/>
  <line x1="167" x2="167" y1="462" y2="611.5" class="net_3"/>
  <line x1="167" x2="782" y1="611.5" y2="611.5" class="net_3"/>
  <line x1="248" x2="295" y1="218.5" y2="218.5" class="net_10"/>
  <line x1="295" x2="295" y1="218.5" y2="492" class="net_10"/>
  <line x1="295" x2="92" y1="492" y2="492" class="net_10"/>
  <line x1="92" x2="92" y1="492" y2="394.5" class="net_10"/>
  <line x1="92" x2="109" y1="394.5" y2="394.5" class="net_10"/>
  <line x1="248" x2="315" y1="238.5" y2="238.5" class="net_4"/>
  <line x1="315" x2="315" y1="238.5" y2="482" class="net_4"/>
  <line x1="315" x2="52" y1="482" y2="482" class="net_4"/>
  <line x1="52" x2="52" y1="482" y2="122.5" class="net_4"/>
  <circle cx="52" cy="482" r="2" style="fill:#000" class="net_4"/>
  <circle cx="315" cy="482" r="2" style="fill:#000" class="net_4"/>
  <line x1="52" x2="109" y1="122.5" y2="122.5" class="net_4"/>
  <line x1="248" x2="384" y1="238.5" y2="238.5" class="net_4"/>
  <line x1="384" x2="384" y1="238.5" y2="482" class="net_4"/>
  <line x1="384" x2="416" y1="482" y2="482" class="net_4"/>
  <line x1="248" x2="315" y1="238.5" y2="238.5" class="net_4"/>
  <line x1="315" x2="315" y1="238.5" y2="502" class="net_4"/>
  <circle cx="315" cy="502" r="2" style="fill:#000" class="net_4"/>
  <line x1="315" x2="332" y1="502" y2="502" class="net_4"/>
  <line x1="40" x2="52" y1="502" y2="502" class="net_4"/>
  <line x1="52" x2="52" y1="502" y2="122.5" class="net_4"/>
  <circle cx="52" cy="502" r="2" style="fill:#000" class="net_4"/>
  <circle cx="52" cy="122.5" r="2" style="fill:#000" class="net_4"/>
  <line x1="52" x2="109" y1="122.5" y2="122.5" class="net_4"/>
  <line x1="40" x2="52" y1="502" y2="502" class="net_4"/>
  <line x1="52" x2="52" y1="502" y2="12" class="net_4"/>
  <line x1="52" x2="315" y1="12" y2="12" class="net_4"/>
  <line x1="315" x2="315" y1="12" y2="238.5" class="net_4"/>
  <line x1="315" x2="384" y1="238.5" y2="238.5" class="net_4"/>
  <line x1="384" x2="384" y1="238.5" y2="482" class="net_4"/>
  <circle cx="315" cy="238.5" r="2" style="fill:#000" class="net_4"/>
  <line x1="384" x2="416" y1="482" y2="482" class="net_4"/>
  <line x1="40" x2="332" y1="502" y2="502" class="net_4"/>
  <line x1="363" x2="416" y1="502" y2="502" class="net_5"/>
  <line x1="360" x2="384" y1="569.5" y2="569.5" class="net_5"/>
  <line x1="384" x2="384" y1="569.5" y2="502" class="net_5"/>
  <circle cx="384" cy="502" r="2" style="fill:#000" class="net_5"/>
  <line x1="384" x2="416" y1="502" y2="502" class="net_5"/>
  <line x1="447" x2="486" y1="482" y2="482" class="net_8"/>
  <line x1="486" x2="486" y1="482" y2="450.5" class="net_8"/>
  <line x1="486" x2="738" y1="450.5" y2="450.5" class="net_8"/>
  <line x1="738" x2="738" y1="450.5" y2="571.5" class="net_8"/>
  <circle cx="486" cy="482" r="2" style="fill:#000" class="net_8"/>
  <circle cx="738" cy="571.5" r="2" style="fill:#000" class="net_8"/>
  <line x1="738" x2="782" y1="571.5" y2="571.5" class="net_8"/>
  <line x1="447" x2="486" y1="482" y2="482" class="net_8"/>
  <line x1="486" x2="486" y1="482" y2="450.5" class="net_8"/>
  <line x1="486" x2="738" y1="450.5" y2="450.5" class="net_8"/>
  <line x1="738" x2="738" y1="450.5" y2="591.5" class="net_8"/>
  <line x1="738" x2="782" y1="591.5" y2="591.5" class="net_8"/>
  <line x1="447" x2="518" y1="482" y2="482" class="net_8"/>
  <line x1="447" x2="486" y1="482" y2="482" class="net_8"/>
  <line x1="486" x2="486" y1="482" y2="589.5" class="net_8"/>
  <line x1="486" x2="82" y1="589.5" y2="589.5" class="net_8"/>
  <line x1="82" x2="82" y1="589.5" y2="326.5" class="net_8"/>
  <line x1="82" x2="109" y1="326.5" y2="326.5" class="net_8"/>
  <line x1="717" x2="738" y1="643" y2="643" class="net_12"/>
  <line x1="738" x2="738" y1="643" y2="631.5" class="net_12"/>
  <circle cx="738" cy="643" r="2" style="fill:#000" class="net_12"/>
  <line x1="738" x2="782" y1="631.5" y2="631.5" class="net_12"/>
  <line x1="717" x2="738" y1="643" y2="643" class="net_12"/>
  <line x1="738" x2="738" y1="643" y2="665.5" class="net_12"/>
  <line x1="738" x2="62" y1="665.5" y2="665.5" class="net_12"/>
  <line x1="62" x2="62" y1="665.5" y2="190.5" class="net_12"/>
  <line x1="62" x2="109" y1="190.5" y2="190.5" class="net_12"/>
  <line x1="813" x2="846" y1="571.5" y2="571.5" class="net_9"/>
  <line x1="846" x2="846" y1="571.5" y2="132.5" class="net_9"/>
  <line x1="846" x2="570" y1="132.5" y2="132.5" class="net_9"/>
  <line x1="570" x2="570" y1="132.5" y2="482" class="net_9"/>
  <circle cx="570" cy="482" r="2" style="fill:#000" class="net_9"/>
  <line x1="570" x2="602" y1="482" y2="482" class="net_9"/>
  <line x1="549" x2="602" y1="482" y2="482" class="net_9"/>
  <line x1="633" x2="654" y1="482" y2="482" class="net_6"/>
  <line x1="654" x2="654" y1="482" y2="643" class="net_6"/>
  <circle cx="654" cy="482" r="2" style="fill:#000" class="net_6"/>
  <line x1="654" x2="686" y1="643" y2="643" class="net_6"/>
  <line x1="633" x2="654" y1="482" y2="482" class="net_6"/>
  <line x1="654" x2="654" y1="482" y2="600.5" class="net_6"/>
  <line x1="654" x2="72" y1="600.5" y2="600.5" class="net_6"/>
  <line x1="72" x2="72" y1="600.5" y2="258.5" class="net_6"/>
  <circle cx="654" cy="600.5" r="2" style="fill:#000" class="net_6"/>
  <line x1="72" x2="109" y1="258.5" y2="258.5" class="net_6"/>
  <line x1="633" x2="654" y1="482" y2="482" class="net_6"/>
  <line x1="654" x2="654" y1="482" y2="162.5" class="net_6"/>
  <line x1="654" x2="782" y1="162.5" y2="162.5" class="net_6"/>
  <line x1="248" x2="305" y1="258.5" y2="258.5" class="net_7"/>
  <line x1="305" x2="305" y1="258.5" y2="227.5" class="net_7"/>
  <line x1="305" x2="782" y1="227.5" y2="227.5" class="net_7"/>
</svg>
